<svg width="343" height="43" viewBox="0 0 343 43" fill="none" xmlns="http://www.w3.org/2000/svg">
<path d="M25.0752 8.70117C24.7497 8.70117 24.4079 8.65234 24.0498 8.55469C21.4131 7.83854 18.8496 7.48047 16.3594 7.48047C15.1387 7.48047 13.8285 7.57812 12.4287 7.77344C11.029 7.96875 9.53971 8.26172 7.96094 8.65234C7.96094 10.8171 7.8877 14.0316 7.74121 18.2959C8.65267 18.2308 11.8346 17.9297 17.2871 17.3926C20.3958 17.0833 22.3652 16.9287 23.1953 16.9287C24.1556 16.9287 24.9775 17.238 25.6611 17.8564C26.3447 18.4587 26.6865 19.2643 26.6865 20.2734C26.6865 22.2103 25.653 23.3089 23.5859 23.5693C22.2839 23.667 20.3389 23.8298 17.751 24.0576C15.4398 24.318 11.9567 24.6354 7.30176 25.0098C7.18783 27.0768 7.13086 28.7451 7.13086 30.0146C7.13086 33.2048 7.31803 35.0195 7.69238 35.459C7.87142 35.6706 8.89681 35.7764 10.7686 35.7764C11.7777 35.7764 13.2995 35.752 15.334 35.7031C17.3685 35.6543 18.8903 35.6299 19.8994 35.6299C20.2249 35.6299 20.7051 35.5811 21.3398 35.4834C21.9746 35.3857 22.4466 35.3369 22.7559 35.3369C23.6999 35.3369 24.5055 35.6055 25.1729 36.1426C25.9378 36.7448 26.3203 37.5911 26.3203 38.6816C26.3203 40.5046 25.3682 41.5951 23.4639 41.9531C21.8363 42.2624 18.459 42.417 13.332 42.417C8.02604 42.417 4.56738 41.7008 2.95605 40.2686C1.18197 38.6898 0.294922 35.2718 0.294922 30.0146C0.294922 27.8337 0.449544 24.5622 0.758789 20.2002C1.08431 15.8219 1.24707 12.5505 1.24707 10.3857C1.24707 9.81608 1.16569 8.97786 1.00293 7.87109C0.840169 6.74805 0.758789 5.90169 0.758789 5.33203C0.758789 2.85807 1.89811 1.62109 4.17676 1.62109C4.8929 1.62109 5.55208 1.82454 6.1543 2.23145C8.04232 1.75944 9.83268 1.40951 11.5254 1.18164C13.2344 0.9375 14.8457 0.81543 16.3594 0.81543C20.4609 0.81543 23.7406 1.28743 26.1982 2.23145C27.6956 2.80111 28.4443 3.83464 28.4443 5.33203C28.4443 6.17839 28.1514 6.92708 27.5654 7.57812C26.9144 8.32682 26.0843 8.70117 25.0752 8.70117Z" fill="white"/>
<path d="M44.7285 29.7461C47.1862 23.5612 49.0905 18.6377 50.4414 14.9756C51.1576 13.0387 51.8656 11.0938 52.5654 9.14062C53.5257 6.82943 54.5592 5.0472 55.666 3.79395C56.3984 2.96387 57.2773 2.54883 58.3027 2.54883C59.2305 2.54883 60.0443 2.87435 60.7441 3.52539C61.444 4.16016 61.7939 4.94141 61.7939 5.86914C61.7939 6.52018 61.5742 7.16309 61.1348 7.79785C60.2559 9.06738 59.4502 10.5973 58.7178 12.3877C58.6852 12.4528 58.083 14.0641 56.9111 17.2217C55.4463 20.9814 53.2653 26.6211 50.3682 34.1406C49.6195 36.11 48.6999 38.0794 47.6094 40.0488C46.9095 41.3184 45.8923 41.9531 44.5576 41.9531C42.8649 41.9531 41.6849 41.1556 41.0176 39.5605C39.0319 34.8242 36.8265 27.9964 34.4014 19.0771C33.734 16.8799 33.0586 14.6826 32.375 12.4854C31.4635 9.42546 31.0078 7.30143 31.0078 6.11328C31.0078 5.15299 31.3659 4.35547 32.082 3.7207C32.7656 3.13477 33.5632 2.8418 34.4746 2.8418C36.0371 2.8418 37.1276 3.6556 37.7461 5.2832C38.0716 6.69922 38.3971 8.1071 38.7227 9.50684C39.2598 11.2646 40.0329 13.9014 41.042 17.417C42.3115 22.0719 43.5404 26.1816 44.7285 29.7461Z" fill="white"/>
<path d="M90.0654 8.70117C89.7399 8.70117 89.3981 8.65234 89.04 8.55469C86.4033 7.83854 83.8398 7.48047 81.3496 7.48047C80.1289 7.48047 78.8187 7.57812 77.4189 7.77344C76.0192 7.96875 74.5299 8.26172 72.9512 8.65234C72.9512 10.8171 72.8779 14.0316 72.7314 18.2959C73.6429 18.2308 76.8249 17.9297 82.2773 17.3926C85.3861 17.0833 87.3555 16.9287 88.1855 16.9287C89.1458 16.9287 89.9678 17.238 90.6514 17.8564C91.335 18.4587 91.6768 19.2643 91.6768 20.2734C91.6768 22.2103 90.6432 23.3089 88.5762 23.5693C87.2741 23.667 85.3291 23.8298 82.7412 24.0576C80.43 24.318 76.9469 24.6354 72.292 25.0098C72.1781 27.0768 72.1211 28.7451 72.1211 30.0146C72.1211 33.2048 72.3083 35.0195 72.6826 35.459C72.8617 35.6706 73.887 35.7764 75.7588 35.7764C76.7679 35.7764 78.2897 35.752 80.3242 35.7031C82.3587 35.6543 83.8805 35.6299 84.8896 35.6299C85.2152 35.6299 85.6953 35.5811 86.3301 35.4834C86.9648 35.3857 87.4368 35.3369 87.7461 35.3369C88.6901 35.3369 89.4958 35.6055 90.1631 36.1426C90.9281 36.7448 91.3105 37.5911 91.3105 38.6816C91.3105 40.5046 90.3584 41.5951 88.4541 41.9531C86.8265 42.2624 83.4492 42.417 78.3223 42.417C73.0163 42.417 69.5576 41.7008 67.9463 40.2686C66.1722 38.6898 65.2852 35.2718 65.2852 30.0146C65.2852 27.8337 65.4398 24.5622 65.749 20.2002C66.0745 15.8219 66.2373 12.5505 66.2373 10.3857C66.2373 9.81608 66.1559 8.97786 65.9932 7.87109C65.8304 6.74805 65.749 5.90169 65.749 5.33203C65.749 2.85807 66.8883 1.62109 69.167 1.62109C69.8831 1.62109 70.5423 1.82454 71.1445 2.23145C73.0326 1.75944 74.8229 1.40951 76.5156 1.18164C78.2246 0.9375 79.8359 0.81543 81.3496 0.81543C85.4512 0.81543 88.7308 1.28743 91.1885 2.23145C92.6859 2.80111 93.4346 3.83464 93.4346 5.33203C93.4346 6.17839 93.1416 6.92708 92.5557 7.57812C91.9046 8.32682 91.0745 8.70117 90.0654 8.70117Z" fill="white"/>
<path d="M121.73 40.293C120.852 40.293 120.046 39.9512 119.313 39.2676C114.382 34.6452 108.962 31.4388 103.054 29.6484C103.233 34.3848 103.322 37.0133 103.322 37.5342C103.322 38.4619 102.997 39.2513 102.346 39.9023C101.695 40.5371 100.881 40.8545 99.9043 40.8545C98.9277 40.8545 98.1139 40.5371 97.4629 39.9023C96.8118 39.2513 96.4863 38.4619 96.4863 37.5342C96.4863 36.3135 96.5026 34.4906 96.5352 32.0654C96.5677 29.624 96.584 27.793 96.584 26.5723L96.6328 6.87012C96.6328 5.81217 96.9502 4.85189 97.585 3.98926C98.415 2.88249 99.5625 2.38607 101.027 2.5C104.982 2.79297 107.009 2.94759 107.106 2.96387C109.385 3.24056 111.322 3.78581 112.917 4.59961C119.867 8.09896 123.342 12.4365 123.342 17.6123C123.342 19.7445 122.609 21.6325 121.145 23.2764C119.696 24.904 117.515 26.2793 114.602 27.4023C118.915 29.8112 122.162 32.2689 124.343 34.7754C124.912 35.4264 125.197 36.1507 125.197 36.9482C125.197 37.8597 124.855 38.6491 124.172 39.3164C123.488 39.9674 122.674 40.293 121.73 40.293ZM106.081 9.58008C105.951 9.5638 104.999 9.4987 103.225 9.38477V22.3486C103.632 22.3649 103.99 22.373 104.299 22.373C108.286 22.373 111.241 21.8766 113.161 20.8838C113.991 20.4606 114.748 19.8991 115.432 19.1992C116.132 18.4993 116.481 17.9704 116.481 17.6123C116.481 15.7894 115.326 14.0316 113.015 12.3389C110.817 10.7438 108.506 9.82422 106.081 9.58008Z" fill="white"/>
<path d="M155.739 9.87305C154.909 11.582 153.241 15.2767 150.734 20.957C148.651 25.7096 146.877 29.4368 145.412 32.1387C142.873 36.8262 141.514 39.3083 141.335 39.585C140.375 41.001 139.268 41.709 138.015 41.709C137.119 41.709 136.33 41.416 135.646 40.8301C134.898 40.179 134.523 39.3734 134.523 38.4131C134.523 37.6156 136.224 34.2627 139.626 28.3545C138.373 26.5479 136.574 23.8053 134.23 20.127C132.473 17.4251 129.893 13.348 126.491 7.89551C126.166 7.34212 126.003 6.76432 126.003 6.16211C126.003 5.2181 126.369 4.42057 127.102 3.76953C127.785 3.16732 128.583 2.86621 129.494 2.86621C130.568 2.86621 131.545 3.41146 132.424 4.50195L134.255 7.43164C134.369 7.62695 135.769 10.0033 138.454 14.5605C140.147 17.474 141.644 19.777 142.946 21.4697C144.183 18.9795 145.965 15.2116 148.293 10.166C148.781 9.04297 149.514 7.34212 150.49 5.06348C151.109 3.59863 152.167 2.86621 153.664 2.86621C154.559 2.86621 155.349 3.15918 156.032 3.74512C156.781 4.37988 157.155 5.17741 157.155 6.1377C157.155 6.69108 156.683 7.9362 155.739 9.87305Z" fill="white"/>
<path d="M208.156 8.67676C207.88 9.34408 207.554 10.166 207.18 11.1426C206.903 12.0866 206.455 13.4863 205.837 15.3418C204.909 17.7344 203.436 21.2174 201.418 25.791C199.351 30.446 197.87 33.9209 196.975 36.2158C196.307 37.9248 195.681 39.292 195.095 40.3174C194.33 41.6683 193.166 42.3438 191.604 42.3438C190.676 42.3438 189.838 42.0915 189.089 41.5869C188.21 41.001 187.738 40.2279 187.673 39.2676C186.924 37.3958 186.452 35.8659 186.257 34.6777C185.541 31.1947 184.548 25.9619 183.278 18.9795C182.22 22.251 181.081 25.1888 179.86 27.793C178.037 31.6992 176.841 34.7673 176.271 36.9971C176.418 37.3551 176.491 37.7376 176.491 38.1445C176.491 39.1536 176.044 39.9756 175.148 40.6104C174.367 41.1475 173.505 41.416 172.561 41.416C171.372 41.416 170.388 41.1149 169.606 40.5127C168.76 39.8454 168.321 38.9339 168.288 37.7783L167.531 34.9219C166.994 32.3828 166.115 28.5905 164.895 23.5449C163.82 19.6875 162.022 14.1943 159.499 7.06543C159.353 6.65853 159.279 6.25163 159.279 5.84473C159.279 4.86816 159.654 4.09505 160.402 3.52539C161.07 3.00456 161.875 2.74414 162.819 2.74414C164.056 2.74414 165.041 3.26497 165.773 4.30664C166.18 4.8763 166.644 5.90983 167.165 7.40723C168.76 11.9971 170.559 18.6865 172.561 27.4756C173.863 24.3018 175.189 20.5583 176.54 16.2451C177.631 12.7295 178.518 10.2311 179.201 8.75C180.829 5.20182 182.489 3.42773 184.182 3.42773C185.777 3.42773 186.94 4.2985 187.673 6.04004C188.031 6.87012 188.381 8.37565 188.723 10.5566C188.82 11.224 189.032 12.8597 189.357 15.4639C189.699 18.2633 190.725 23.3577 192.434 30.7471C194.159 26.7106 196.478 20.8919 199.392 13.291C199.571 12.8353 199.994 11.3379 200.661 8.79883C201.133 6.97591 201.727 5.53548 202.443 4.47754C203.225 3.33822 204.266 2.76855 205.568 2.76855C206.561 2.76855 207.383 3.0778 208.034 3.69629C208.685 4.2985 209.011 5.07975 209.011 6.04004C209.011 6.38184 208.726 7.26074 208.156 8.67676Z" fill="white"/>
<path d="M246.706 6.1377C246.381 7.32585 246.218 8.35938 246.218 9.23828C246.218 9.69401 246.169 10.402 246.071 11.3623C245.99 12.3063 245.949 13.0062 245.949 13.4619C245.949 15.0081 245.868 17.3031 245.705 20.3467C245.542 23.3903 245.461 25.6852 245.461 27.2314C245.461 28.4196 245.55 30.1937 245.729 32.5537C245.909 34.9137 245.998 36.6878 245.998 37.876C245.998 38.7712 245.681 39.528 245.046 40.1465C244.411 40.765 243.622 41.0742 242.678 41.0742C241.717 41.0742 240.887 40.765 240.188 40.1465C239.488 39.5443 239.138 38.8037 239.138 37.9248C239.138 36.7367 239.081 34.9544 238.967 32.5781C238.869 30.2018 238.82 28.4196 238.82 27.2314C238.82 26.3037 238.837 25.4818 238.869 24.7656C236.314 24.8796 233.156 25.2783 229.396 25.9619C226.271 26.5316 223.146 27.1094 220.021 27.6953C219.989 28.8021 219.875 30.6494 219.68 33.2373C219.517 35.516 219.436 37.3796 219.436 38.8281C219.436 39.7233 219.118 40.4801 218.483 41.0986C217.849 41.7171 217.059 42.0264 216.115 42.0264C215.171 42.0264 214.382 41.7171 213.747 41.0986C213.112 40.4801 212.795 39.7233 212.795 38.8281C212.795 37.1842 212.933 34.7266 213.21 31.4551C213.503 28.1836 213.649 25.7259 213.649 24.082C213.649 21.9987 213.698 18.8656 213.796 14.6826C213.894 10.4834 213.942 7.34212 213.942 5.25879C213.942 4.36361 214.26 3.60677 214.895 2.98828C215.529 2.36979 216.319 2.06055 217.263 2.06055C218.207 2.06055 218.996 2.36979 219.631 2.98828C220.266 3.60677 220.583 4.36361 220.583 5.25879C220.583 6.49577 220.534 8.35938 220.437 10.8496C220.355 13.3236 220.314 15.179 220.314 16.416C220.314 16.8229 220.257 17.6042 220.144 18.7598C220.046 19.834 220.005 20.6559 220.021 21.2256L229.396 19.4678C233.059 18.8167 236.216 18.4424 238.869 18.3447C238.934 17.2542 239.04 14.3245 239.187 9.55566C239.219 8.30241 239.602 6.86198 240.334 5.23438C241.245 3.23242 242.279 2.23145 243.435 2.23145C244.297 2.23145 245.062 2.51628 245.729 3.08594C246.446 3.70443 246.804 4.47754 246.804 5.40527C246.804 5.64941 246.771 5.89355 246.706 6.1377Z" fill="white"/>
<path d="M275.563 8.70117C275.238 8.70117 274.896 8.65234 274.538 8.55469C271.901 7.83854 269.338 7.48047 266.848 7.48047C265.627 7.48047 264.317 7.57812 262.917 7.77344C261.517 7.96875 260.028 8.26172 258.449 8.65234C258.449 10.8171 258.376 14.0316 258.229 18.2959C259.141 18.2308 262.323 17.9297 267.775 17.3926C270.884 17.0833 272.854 16.9287 273.684 16.9287C274.644 16.9287 275.466 17.238 276.149 17.8564C276.833 18.4587 277.175 19.2643 277.175 20.2734C277.175 22.2103 276.141 23.3089 274.074 23.5693C272.772 23.667 270.827 23.8298 268.239 24.0576C265.928 24.318 262.445 24.6354 257.79 25.0098C257.676 27.0768 257.619 28.7451 257.619 30.0146C257.619 33.2048 257.806 35.0195 258.181 35.459C258.36 35.6706 259.385 35.7764 261.257 35.7764C262.266 35.7764 263.788 35.752 265.822 35.7031C267.857 35.6543 269.379 35.6299 270.388 35.6299C270.713 35.6299 271.193 35.5811 271.828 35.4834C272.463 35.3857 272.935 35.3369 273.244 35.3369C274.188 35.3369 274.994 35.6055 275.661 36.1426C276.426 36.7448 276.809 37.5911 276.809 38.6816C276.809 40.5046 275.856 41.5951 273.952 41.9531C272.325 42.2624 268.947 42.417 263.82 42.417C258.514 42.417 255.056 41.7008 253.444 40.2686C251.67 38.6898 250.783 35.2718 250.783 30.0146C250.783 27.8337 250.938 24.5622 251.247 20.2002C251.573 15.8219 251.735 12.5505 251.735 10.3857C251.735 9.81608 251.654 8.97786 251.491 7.87109C251.328 6.74805 251.247 5.90169 251.247 5.33203C251.247 2.85807 252.386 1.62109 254.665 1.62109C255.381 1.62109 256.04 1.82454 256.643 2.23145C258.531 1.75944 260.321 1.40951 262.014 1.18164C263.723 0.9375 265.334 0.81543 266.848 0.81543C270.949 0.81543 274.229 1.28743 276.687 2.23145C278.184 2.80111 278.933 3.83464 278.933 5.33203C278.933 6.17839 278.64 6.92708 278.054 7.57812C277.403 8.32682 276.573 8.70117 275.563 8.70117Z" fill="white"/>
<path d="M307.229 40.293C306.35 40.293 305.544 39.9512 304.812 39.2676C299.88 34.6452 294.46 31.4388 288.552 29.6484C288.731 34.3848 288.82 37.0133 288.82 37.5342C288.82 38.4619 288.495 39.2513 287.844 39.9023C287.193 40.5371 286.379 40.8545 285.402 40.8545C284.426 40.8545 283.612 40.5371 282.961 39.9023C282.31 39.2513 281.984 38.4619 281.984 37.5342C281.984 36.3135 282.001 34.4906 282.033 32.0654C282.066 29.624 282.082 27.793 282.082 26.5723L282.131 6.87012C282.131 5.81217 282.448 4.85189 283.083 3.98926C283.913 2.88249 285.061 2.38607 286.525 2.5C290.48 2.79297 292.507 2.94759 292.604 2.96387C294.883 3.24056 296.82 3.78581 298.415 4.59961C305.365 8.09896 308.84 12.4365 308.84 17.6123C308.84 19.7445 308.107 21.6325 306.643 23.2764C305.194 24.904 303.013 26.2793 300.1 27.4023C304.413 29.8112 307.66 32.2689 309.841 34.7754C310.41 35.4264 310.695 36.1507 310.695 36.9482C310.695 37.8597 310.354 38.6491 309.67 39.3164C308.986 39.9674 308.173 40.293 307.229 40.293ZM291.579 9.58008C291.449 9.5638 290.497 9.4987 288.723 9.38477V22.3486C289.13 22.3649 289.488 22.373 289.797 22.373C293.785 22.373 296.739 21.8766 298.659 20.8838C299.489 20.4606 300.246 19.8991 300.93 19.1992C301.63 18.4993 301.979 17.9704 301.979 17.6123C301.979 15.7894 300.824 14.0316 298.513 12.3389C296.315 10.7438 294.004 9.82422 291.579 9.58008Z" fill="white"/>
<path d="M338.845 8.70117C338.519 8.70117 338.177 8.65234 337.819 8.55469C335.183 7.83854 332.619 7.48047 330.129 7.48047C328.908 7.48047 327.598 7.57812 326.198 7.77344C324.799 7.96875 323.309 8.26172 321.73 8.65234C321.73 10.8171 321.657 14.0316 321.511 18.2959C322.422 18.2308 325.604 17.9297 331.057 17.3926C334.165 17.0833 336.135 16.9287 336.965 16.9287C337.925 16.9287 338.747 17.238 339.431 17.8564C340.114 18.4587 340.456 19.2643 340.456 20.2734C340.456 22.2103 339.423 23.3089 337.355 23.5693C336.053 23.667 334.108 23.8298 331.521 24.0576C329.209 24.318 325.726 24.6354 321.071 25.0098C320.957 27.0768 320.9 28.7451 320.9 30.0146C320.9 33.2048 321.088 35.0195 321.462 35.459C321.641 35.6706 322.666 35.7764 324.538 35.7764C325.547 35.7764 327.069 35.752 329.104 35.7031C331.138 35.6543 332.66 35.6299 333.669 35.6299C333.994 35.6299 334.475 35.5811 335.109 35.4834C335.744 35.3857 336.216 35.3369 336.525 35.3369C337.469 35.3369 338.275 35.6055 338.942 36.1426C339.707 36.7448 340.09 37.5911 340.09 38.6816C340.09 40.5046 339.138 41.5951 337.233 41.9531C335.606 42.2624 332.229 42.417 327.102 42.417C321.796 42.417 318.337 41.7008 316.726 40.2686C314.951 38.6898 314.064 35.2718 314.064 30.0146C314.064 27.8337 314.219 24.5622 314.528 20.2002C314.854 15.8219 315.017 12.5505 315.017 10.3857C315.017 9.81608 314.935 8.97786 314.772 7.87109C314.61 6.74805 314.528 5.90169 314.528 5.33203C314.528 2.85807 315.668 1.62109 317.946 1.62109C318.662 1.62109 319.322 1.82454 319.924 2.23145C321.812 1.75944 323.602 1.40951 325.295 1.18164C327.004 0.9375 328.615 0.81543 330.129 0.81543C334.23 0.81543 337.51 1.28743 339.968 2.23145C341.465 2.80111 342.214 3.83464 342.214 5.33203C342.214 6.17839 341.921 6.92708 341.335 7.57812C340.684 8.32682 339.854 8.70117 338.845 8.70117Z" fill="white"/>
</svg>
