<svg width="217" height="43" viewBox="0 0 217 43" fill="none" xmlns="http://www.w3.org/2000/svg">
<path d="M24.4395 39.0723C22.5189 39.9186 19.5485 40.6755 15.5283 41.3428C11.8499 41.9613 8.83073 42.2705 6.4707 42.2705C2.48307 42.2705 0.489258 40.5208 0.489258 37.0215C0.489258 37.2982 0.652018 34.7184 0.977539 29.2822C1.40072 22.2184 1.6123 14.3571 1.6123 5.69824C1.6123 4.77051 1.92969 3.98112 2.56445 3.33008C3.21549 2.67904 4.0293 2.35352 5.00586 2.35352C5.98242 2.35352 6.79622 2.67904 7.44727 3.33008C8.09831 3.98112 8.42383 4.77051 8.42383 5.69824C8.42383 14.3734 8.2041 22.3649 7.76465 29.6729C7.61816 30.9749 7.46354 32.9688 7.30078 35.6543C11.1582 35.5892 16.1061 34.6452 22.1445 32.8223C22.5189 32.7083 22.877 32.6514 23.2188 32.6514C24.2441 32.6514 25.0742 33.0257 25.709 33.7744C26.2786 34.4417 26.5635 35.1904 26.5635 36.0205C26.5635 37.4202 25.8555 38.4375 24.4395 39.0723ZM53.6143 8.70117C53.2887 8.70117 52.9469 8.65234 52.5889 8.55469C49.9521 7.83854 47.3887 7.48047 44.8984 7.48047C43.6777 7.48047 42.3675 7.57812 40.9678 7.77344C39.568 7.96875 38.0788 8.26172 36.5 8.65234C36.5 10.8171 36.4268 14.0316 36.2803 18.2959C37.1917 18.2308 40.3737 17.9297 45.8262 17.3926C48.9349 17.0833 50.9043 16.9287 51.7344 16.9287C52.6947 16.9287 53.5166 17.238 54.2002 17.8564C54.8838 18.4587 55.2256 19.2643 55.2256 20.2734C55.2256 22.2103 54.1921 23.3089 52.125 23.5693C50.8229 23.667 48.8779 23.8298 46.29 24.0576C43.9788 24.318 40.4958 24.6354 35.8408 25.0098C35.7269 27.0768 35.6699 28.7451 35.6699 30.0146C35.6699 33.2048 35.8571 35.0195 36.2314 35.459C36.4105 35.6706 37.4359 35.7764 39.3076 35.7764C40.3167 35.7764 41.8385 35.752 43.873 35.7031C45.9076 35.6543 47.4294 35.6299 48.4385 35.6299C48.764 35.6299 49.2441 35.5811 49.8789 35.4834C50.5137 35.3857 50.9857 35.3369 51.2949 35.3369C52.2389 35.3369 53.0446 35.6055 53.7119 36.1426C54.4769 36.7448 54.8594 37.5911 54.8594 38.6816C54.8594 40.5046 53.9072 41.5951 52.0029 41.9531C50.3753 42.2624 46.998 42.417 41.8711 42.417C36.5651 42.417 33.1064 41.7008 31.4951 40.2686C29.721 38.6898 28.834 35.2718 28.834 30.0146C28.834 27.8337 28.9886 24.5622 29.2979 20.2002C29.6234 15.8219 29.7861 12.5505 29.7861 10.3857C29.7861 9.81608 29.7048 8.97786 29.542 7.87109C29.3792 6.74805 29.2979 5.90169 29.2979 5.33203C29.2979 2.85807 30.4372 1.62109 32.7158 1.62109C33.432 1.62109 34.0911 1.82454 34.6934 2.23145C36.5814 1.75944 38.3717 1.40951 40.0645 1.18164C41.7734 0.9375 43.3848 0.81543 44.8984 0.81543C49 0.81543 52.2796 1.28743 54.7373 2.23145C56.2347 2.80111 56.9834 3.83464 56.9834 5.33203C56.9834 6.17839 56.6904 6.92708 56.1045 7.57812C55.4535 8.32682 54.6234 8.70117 53.6143 8.70117ZM70.7041 20.7129C69.9717 23.3496 68.9463 27.3291 67.6279 32.6514C67.3187 34.4906 67.0176 36.3216 66.7246 38.1445C66.0573 40.4557 64.8285 41.6113 63.0381 41.6113C61.915 41.6113 61.028 41.2288 60.377 40.4639C59.8236 39.8128 59.5469 39.0397 59.5469 38.1445C59.5469 35.5078 60.1084 32.2933 61.2314 28.501C62.9079 22.8206 63.8112 19.6712 63.9414 19.0527C64.4134 16.5462 64.8936 14.0397 65.3818 11.5332C66.1143 8.08268 66.9036 5.78776 67.75 4.64844C68.6126 3.49284 69.695 2.91504 70.9971 2.91504C72.4782 2.91504 73.5687 3.66374 74.2686 5.16113C74.9196 6.57715 75.6195 9.47428 76.3682 13.8525C77.0843 18.1006 78.1504 22.6742 79.5664 27.5732C81.4219 22.7393 83.1471 17.4333 84.7422 11.6553L86.1094 6.04004C86.9883 3.71257 88.3473 2.54883 90.1865 2.54883C91.9606 2.54883 93.279 3.89974 94.1416 6.60156C94.4997 7.69206 94.8822 9.72656 95.2891 12.7051C96.2331 19.6387 97.4212 25.5794 98.8535 30.5273C100.302 35.5566 101.026 38.291 101.026 38.7305C101.026 39.6908 100.644 40.4964 99.8789 41.1475C99.1628 41.7334 98.3571 42.0264 97.4619 42.0264C95.6878 42.0264 94.3695 40.7568 93.5068 38.2178L92.1396 32.3096C91.3584 29.3799 90.512 25.1725 89.6006 19.6875C88.8682 21.8685 87.6556 25.2946 85.9629 29.9658L84.498 34.458C83.8958 36.2321 83.2692 37.6888 82.6182 38.8281C81.7555 40.3418 80.5511 41.0986 79.0049 41.0986C77.4749 41.0986 76.3031 40.1953 75.4893 38.3887L74.1221 33.8477C72.8525 29.681 71.7132 25.3027 70.7041 20.7129ZM121.119 41.4893C116.301 41.4893 112.2 40.1058 108.814 37.3389C105.201 34.3766 103.395 30.5436 103.395 25.8398C103.395 20.306 105.128 15.2604 108.595 10.7031C112.485 5.57617 117.384 3.0127 123.292 3.0127C128.972 3.0127 133.229 4.31478 136.061 6.91895C138.893 9.52311 140.309 13.4375 140.309 18.6621C140.309 24.196 138.714 29.209 135.523 33.7012C131.845 38.8932 127.044 41.4893 121.119 41.4893ZM123.292 9.62891C119.662 9.62891 116.554 11.3867 113.966 14.9023C111.541 18.1901 110.328 21.8359 110.328 25.8398C110.328 28.5417 111.378 30.7389 113.478 32.4316C115.496 34.0592 118.043 34.873 121.119 34.873C124.7 34.873 127.687 33.1152 130.079 29.5996C132.276 26.3932 133.375 22.7474 133.375 18.6621C133.375 15.2441 132.61 12.8678 131.08 11.5332C129.615 10.2637 127.019 9.62891 123.292 9.62891ZM180.47 33.9941C180.47 34.8079 180.331 36.0938 180.055 37.8516C179.729 39.9512 178.541 41.001 176.49 41.001C175.351 41.001 174.065 40.3581 172.633 39.0723C166.367 33.4245 159.295 25.5062 151.417 15.3174C151.319 19.5492 151.271 22.1452 151.271 23.1055C151.271 24.3913 151.295 26.3281 151.344 28.916C151.409 31.5039 151.441 33.4408 151.441 34.7266C151.441 39.528 150.27 41.9287 147.926 41.9287C146.738 41.9287 145.785 41.5625 145.069 40.8301C144.435 40.179 144.117 39.3896 144.117 38.4619C144.117 37.8109 144.166 36.8262 144.264 35.5078C144.378 34.1895 144.435 33.2048 144.435 32.5537C144.435 31.5934 144.467 30.153 144.532 28.2324C144.597 26.3118 144.63 24.8714 144.63 23.9111C144.63 22.8857 144.605 21.3395 144.557 19.2725C144.508 17.2054 144.483 15.6592 144.483 14.6338C144.483 13.6572 144.386 12.2005 144.19 10.2637C143.995 8.32682 143.897 6.87012 143.897 5.89355C143.897 4.91699 144.312 4.04622 145.143 3.28125C145.989 2.51628 146.949 2.13379 148.023 2.13379C149.228 2.13379 150.562 3.17546 152.027 5.25879C159.417 15.8057 166.708 24.4076 173.902 31.0645C173.919 30.5436 173.927 29.3066 173.927 27.3535C173.927 19.3294 173.845 13.9176 173.683 11.1182C173.65 10.6462 173.544 9.76725 173.365 8.48145C173.202 7.34212 173.121 6.44694 173.121 5.7959C173.121 3.5498 174.309 2.42676 176.686 2.42676C179.339 2.42676 180.665 6.52018 180.665 14.707C180.665 14.8861 180.649 16.1719 180.616 18.5645C180.519 26.8327 180.47 31.9759 180.47 33.9941ZM196.485 41.4893C192.351 41.4893 189.096 40.5697 186.72 38.7305C184.718 37.2005 183.717 35.4346 183.717 33.4326C183.717 32.4072 184.026 31.5609 184.645 30.8936C185.263 30.21 186.118 29.8682 187.208 29.8682C188.673 29.8682 189.747 30.6169 190.431 32.1143C191.358 34.1162 193.458 35.1172 196.729 35.1172C199.529 35.1172 202.239 34.5068 204.859 33.2861C207.577 32.0329 208.937 30.6576 208.937 29.1602C208.937 27.1094 208.09 25.7585 206.397 25.1074C205.193 24.6354 202.776 24.3587 199.146 24.2773C196.331 24.2122 193.808 23.6833 191.578 22.6904C188.567 21.3395 187.086 19.4027 187.135 16.8799C187.184 13.7061 188.876 10.8008 192.213 8.16406C195.549 5.51107 199.228 4.18457 203.248 4.18457C204.843 4.18457 206.812 4.55078 209.156 5.2832C212.07 6.19466 213.526 7.24447 213.526 8.43262C213.526 9.27897 213.233 10.0277 212.647 10.6787C211.996 11.4111 211.158 11.7773 210.133 11.7773C209.368 11.7773 208.22 11.6146 206.69 11.2891C205.177 10.9635 204.029 10.8008 203.248 10.8008C201.148 10.8171 199.155 11.3216 197.267 12.3145C195.313 13.3236 194.337 14.4222 194.337 15.6104C194.337 16.2288 194.63 16.7415 195.216 17.1484C195.818 17.5391 196.713 17.8158 197.901 17.9785C199.985 18.0924 202.06 18.2064 204.127 18.3203C207.74 18.597 210.597 19.6143 212.696 21.3721C215.007 23.3252 216.163 26.027 216.163 29.4775C216.163 33.6768 213.771 36.8587 208.985 39.0234C205.34 40.6673 201.173 41.4893 196.485 41.4893Z" fill="white"/>
</svg>
