<svg width="373" height="52" viewBox="0 0 373 52" fill="none" xmlns="http://www.w3.org/2000/svg">
<g filter="url(#filter0_d_38_4)">
<path d="M22.5586 38.1836C20.7194 39.0462 17.8304 39.8193 13.8916 40.5029C10.262 41.1377 7.2998 41.4551 5.00488 41.4551C3.361 41.4551 2.18099 41.2028 1.46484 40.6982C0.488281 40.0146 0 38.7614 0 36.9385L0.488281 28.8574C0.911458 21.403 1.12305 13.1348 1.12305 4.05273C1.12305 3.35286 1.35091 2.75879 1.80664 2.27051C2.27865 1.78223 2.85645 1.53809 3.54004 1.53809C4.23991 1.53809 4.81771 1.78223 5.27344 2.27051C5.74544 2.75879 5.98145 3.35286 5.98145 4.05273C5.98145 13.2487 5.76172 21.6146 5.32227 29.1504L5.00488 32.8613C4.87467 34.2122 4.82585 35.4085 4.8584 36.4502C9.10645 36.499 14.4775 35.498 20.9717 33.4473C21.2484 33.3659 21.5088 33.3252 21.7529 33.3252C22.4528 33.3252 23.0387 33.6019 23.5107 34.1553C23.9176 34.6598 24.1211 35.2376 24.1211 35.8887C24.1211 36.9303 23.6003 37.6953 22.5586 38.1836Z" fill="#95F204"/>
<path d="M52.2949 6.32324C52.0671 6.32324 51.8148 6.28255 51.5381 6.20117C48.7874 5.41992 46.1344 5.0293 43.5791 5.0293C42.2445 5.0293 40.7878 5.15137 39.209 5.39551C37.6302 5.63965 35.9294 6.014 34.1064 6.51855C34.2529 7.5765 34.3262 8.42285 34.3262 9.05762C34.3262 11.32 34.1878 14.4287 33.9111 18.3838L44.6045 17.3584C47.7458 17.0329 49.6745 16.8701 50.3906 16.8701C51.1068 16.8701 51.709 17.098 52.1973 17.5537C52.6855 18.0094 52.9297 18.6198 52.9297 19.3848C52.9297 20.8659 52.181 21.696 50.6836 21.875L44.873 22.3877L33.5938 23.4131C33.5286 24.5687 33.4717 25.6673 33.4229 26.709C33.3903 27.7344 33.374 28.6947 33.374 29.5898C33.374 33.1868 33.6344 35.3027 34.1553 35.9375C34.5459 36.3932 35.8236 36.6211 37.9883 36.6211C38.9974 36.6211 40.5111 36.5967 42.5293 36.5479C44.5638 36.4827 46.0938 36.4502 47.1191 36.4502C47.4447 36.4502 47.9248 36.4014 48.5596 36.3037C49.1943 36.1898 49.6663 36.1328 49.9756 36.1328C51.7008 36.1328 52.5635 36.9792 52.5635 38.6719C52.5635 40.0391 51.8717 40.861 50.4883 41.1377C48.9583 41.4469 45.6462 41.6016 40.5518 41.6016C35.5062 41.6016 32.2673 40.9342 30.835 39.5996C29.2725 38.151 28.4912 34.8145 28.4912 29.5898C28.4912 28.5482 28.5156 27.4089 28.5645 26.1719C28.6133 24.9349 28.6784 23.6003 28.7598 22.168C28.5807 21.7936 28.4912 21.3949 28.4912 20.9717C28.4912 20.4183 28.6458 19.9219 28.9551 19.4824C29.2806 14.7786 29.4434 11.3037 29.4434 9.05762C29.4434 8.4554 29.362 7.5765 29.1992 6.4209C29.0365 5.24902 28.9551 4.36198 28.9551 3.75977C28.9551 1.82292 29.7689 0.854492 31.3965 0.854492C32.0801 0.854492 32.666 1.09049 33.1543 1.5625C35.1074 1.04167 36.9466 0.651042 38.6719 0.390625C40.4134 0.130208 42.0492 0 43.5791 0C47.5342 0 50.6917 0.472005 53.0518 1.41602C54.1423 1.85547 54.6875 2.63672 54.6875 3.75977C54.6875 4.41081 54.4759 4.98861 54.0527 5.49316C53.5807 6.04655 52.9948 6.32324 52.2949 6.32324Z" fill="#95F204"/>
<path d="M95.9961 41.2109C95.1172 41.2109 94.3929 40.7552 93.8232 39.8438C93.335 39.0625 92.8955 37.7604 92.5049 35.9375L91.626 31.7383C90.9587 29.1341 89.9007 23.3887 88.4521 14.502L83.5693 29.2236L82.1289 33.8623C81.543 35.7015 80.9326 37.207 80.2979 38.3789C79.6143 39.6159 78.6947 40.2344 77.5391 40.2344C76.5788 40.2344 75.8219 39.7135 75.2686 38.6719C74.9105 37.9883 74.585 37.1175 74.292 36.0596L73.584 33.3496C71.9401 27.6042 70.4915 21.4518 69.2383 14.8926L68.3594 19.2627L65.21 32.1533C65.0798 33.667 64.6729 35.9049 63.9893 38.8672C63.501 40.1367 62.6953 40.7715 61.5723 40.7715C60.7747 40.7715 60.14 40.4867 59.668 39.917C59.2611 39.4287 59.0576 38.8265 59.0576 38.1104C59.0576 35.3923 59.6191 32.0557 60.7422 28.1006L63.4277 18.2617L64.8438 10.5713C65.5599 6.97428 66.3167 4.6224 67.1143 3.51562C67.7653 2.57161 68.571 2.09961 69.5312 2.09961C70.5892 2.09961 71.3786 2.70182 71.8994 3.90625C72.5342 5.35482 73.2178 8.30892 73.9502 12.7686C74.8128 18.1234 76.1556 23.9176 77.9785 30.1514C80.3874 23.8851 82.4707 17.3584 84.2285 10.5713L84.9609 7.00684C85.2539 5.57454 85.6364 4.41895 86.1084 3.54004C86.7432 2.33561 87.6139 1.7334 88.7207 1.7334C90.1204 1.7334 91.1865 3.08431 91.9189 5.78613C92.1794 6.71387 92.4967 8.63444 92.8711 11.5479C93.8314 18.9046 95.0277 25.1872 96.46 30.3955L97.6562 34.5947C98.2747 36.8408 98.584 38.2243 98.584 38.7451C98.584 39.445 98.3154 40.0309 97.7783 40.5029C97.2575 40.9749 96.6634 41.2109 95.9961 41.2109Z" fill="#95F204"/>
<path d="M120.044 40.6738C115.454 40.6738 111.564 39.2985 108.374 36.5479C104.989 33.6182 103.296 29.8421 103.296 25.2197C103.296 19.5882 104.964 14.4694 108.301 9.86328C112.028 4.7526 116.675 2.19727 122.241 2.19727C127.596 2.19727 131.576 3.40169 134.18 5.81055C136.898 8.31706 138.257 12.2721 138.257 17.6758C138.257 23.3073 136.727 28.3854 133.667 32.9102C130.151 38.0859 125.61 40.6738 120.044 40.6738ZM122.241 7.20215C118.254 7.20215 114.876 9.18783 112.109 13.1592C109.554 16.805 108.276 20.8252 108.276 25.2197C108.276 28.361 109.44 30.9163 111.768 32.8857C113.997 34.7412 116.756 35.6689 120.044 35.6689C123.999 35.6689 127.262 33.6751 129.834 29.6875C132.129 26.123 133.276 22.1191 133.276 17.6758C133.276 13.7858 132.406 11.0514 130.664 9.47266C129.004 7.95898 126.196 7.20215 122.241 7.20215Z" fill="#95F204"/>
<path d="M178.027 33.7646C178.027 34.5459 177.897 35.848 177.637 37.6709C177.376 39.3148 176.506 40.1367 175.024 40.1367C174.129 40.1367 173.063 39.5508 171.826 38.3789C165.202 32.1126 157.601 23.0713 149.023 11.2549L148.901 16.7969L148.828 22.3633C148.828 23.7142 148.853 25.7406 148.901 28.4424C148.966 31.1442 148.999 33.1787 148.999 34.5459C148.999 38.9242 148.153 41.1133 146.46 41.1133C145.565 41.1133 144.857 40.8285 144.336 40.2588C143.864 39.7542 143.628 39.152 143.628 38.4521C143.628 37.7686 143.677 36.735 143.774 35.3516C143.888 33.9681 143.945 32.9346 143.945 32.251C143.945 31.2419 143.978 29.7363 144.043 27.7344C144.108 25.7161 144.141 24.2025 144.141 23.1934C144.141 22.1191 144.116 20.4997 144.067 18.335C144.019 16.154 143.994 14.5264 143.994 13.4521C143.994 12.4268 143.896 10.9049 143.701 8.88672C143.506 6.85221 143.408 5.32227 143.408 4.29688C143.408 3.54818 143.726 2.86458 144.36 2.24609C145.011 1.6276 145.744 1.31836 146.558 1.31836C147.42 1.31836 148.486 2.26237 149.756 4.15039C153.809 10.2214 157.454 15.2669 160.693 19.2871C164.551 24.056 168.783 28.6133 173.389 32.959C173.438 32.2591 173.438 31.2256 173.389 29.8584L173.315 26.7822C173.315 19.637 173.039 13.9486 172.485 9.7168C172.42 9.29362 172.201 8.43913 171.826 7.15332C171.501 6.04655 171.338 5.18392 171.338 4.56543C171.338 2.67741 172.201 1.7334 173.926 1.7334C176.758 1.7334 178.174 7.01497 178.174 17.5781C178.174 19.3848 178.149 22.0866 178.101 25.6836C178.052 29.2643 178.027 31.958 178.027 33.7646Z" fill="#95F204"/>
<path d="M183.521 33.1055C183.504 32.4219 183.732 31.8685 184.204 31.4453C184.692 31.0059 185.286 30.7861 185.986 30.7861C186.784 30.7861 187.484 31.2419 188.086 32.1533C188.916 33.3903 189.657 34.2285 190.308 34.668C191.691 35.5794 193.701 36.0352 196.338 36.0352C198.861 36.0352 201.204 35.4899 203.369 34.3994C206.136 32.9997 207.52 31.0547 207.52 28.5645C207.52 26.5137 206.356 24.8942 204.028 23.7061C202.059 22.6807 199.626 22.1273 196.729 22.0459C194.157 21.9482 191.968 21.3867 190.161 20.3613C187.85 19.043 186.694 17.1549 186.694 14.6973C186.694 11.8001 188.338 9.15527 191.626 6.7627C194.767 4.50033 198.014 3.36914 201.367 3.36914C202.946 3.36914 204.728 3.6377 206.714 4.1748C209.351 4.87467 210.669 5.76986 210.669 6.86035C210.669 8.29264 209.937 9.00879 208.472 9.00879C207.821 9.00879 206.681 8.83789 205.054 8.49609C203.426 8.13802 202.165 7.96712 201.27 7.9834C198.73 8.01595 196.574 8.64258 194.8 9.86328C192.977 11.1165 192.065 12.6383 192.065 14.4287C192.065 15.7796 193.27 16.7318 195.679 17.2852C196.574 17.4967 198.307 17.6921 200.879 17.8711C204.606 18.1478 207.52 19.3197 209.619 21.3867C211.54 23.2747 212.5 25.5778 212.5 28.2959C212.5 32.1696 210.71 35.262 207.129 37.5732C204.02 39.5752 200.415 40.5762 196.313 40.5762C193.335 40.5762 190.609 40.0065 188.135 38.8672C185.107 37.4674 183.569 35.5469 183.521 33.1055Z" fill="#95F204"/>
<path d="M257.349 39.4531C256.73 39.4531 256.152 39.1927 255.615 38.6719C250.228 33.3496 244.238 29.7689 237.646 27.9297L237.842 32.7148L237.964 37.5244C237.964 38.2406 237.728 38.8346 237.256 39.3066C236.8 39.7949 236.222 40.0391 235.522 40.0391C234.823 40.0391 234.237 39.7949 233.765 39.3066C233.309 38.8346 233.081 38.2406 233.081 37.5244C233.081 36.2386 233.016 34.3262 232.886 31.7871C232.772 29.2318 232.715 27.3112 232.715 26.0254C232.715 24.528 232.878 22.2982 233.203 19.3359C233.529 16.3737 233.691 14.152 233.691 12.6709C233.691 11.8408 233.61 10.612 233.447 8.98438C233.301 7.35677 233.228 6.12793 233.228 5.29785C233.228 4.37012 233.488 3.55632 234.009 2.85645C234.627 1.99382 235.482 1.60319 236.572 1.68457L242.456 2.14844C244.686 2.42513 246.566 2.97038 248.096 3.78418C254.688 7.28353 257.983 11.556 257.983 16.6016C257.983 19.0755 256.86 21.2646 254.614 23.1689C252.808 24.6989 250.553 25.8626 247.852 26.6602C252.913 29.3783 256.698 32.2428 259.204 35.2539C259.627 35.7747 259.839 36.3281 259.839 36.9141C259.839 37.5977 259.587 38.1917 259.082 38.6963C258.594 39.2008 258.016 39.4531 257.349 39.4531ZM241.797 7.17773L238.184 6.88477L238.428 9.83887C238.542 11.0433 238.599 12.028 238.599 12.793C238.599 14.0951 238.493 15.7145 238.281 17.6514L237.769 22.5098C237.996 22.5098 238.346 22.5179 238.818 22.5342C239.307 22.5505 239.673 22.5586 239.917 22.5586C244.067 22.5586 247.176 22.0052 249.243 20.8984C250.155 20.3939 251.001 19.7347 251.782 18.9209C252.645 18.0094 253.076 17.2363 253.076 16.6016C253.076 14.3392 251.79 12.2314 249.219 10.2783C246.859 8.48796 244.385 7.45443 241.797 7.17773Z" fill="#95F204"/>
<path d="M288.525 6.32324C288.298 6.32324 288.045 6.28255 287.769 6.20117C285.018 5.41992 282.365 5.0293 279.81 5.0293C278.475 5.0293 277.018 5.15137 275.439 5.39551C273.861 5.63965 272.16 6.014 270.337 6.51855C270.483 7.5765 270.557 8.42285 270.557 9.05762C270.557 11.32 270.418 14.4287 270.142 18.3838L280.835 17.3584C283.976 17.0329 285.905 16.8701 286.621 16.8701C287.337 16.8701 287.939 17.098 288.428 17.5537C288.916 18.0094 289.16 18.6198 289.16 19.3848C289.16 20.8659 288.411 21.696 286.914 21.875L281.104 22.3877L269.824 23.4131C269.759 24.5687 269.702 25.6673 269.653 26.709C269.621 27.7344 269.604 28.6947 269.604 29.5898C269.604 33.1868 269.865 35.3027 270.386 35.9375C270.776 36.3932 272.054 36.6211 274.219 36.6211C275.228 36.6211 276.742 36.5967 278.76 36.5479C280.794 36.4827 282.324 36.4502 283.35 36.4502C283.675 36.4502 284.155 36.4014 284.79 36.3037C285.425 36.1898 285.897 36.1328 286.206 36.1328C287.931 36.1328 288.794 36.9792 288.794 38.6719C288.794 40.0391 288.102 40.861 286.719 41.1377C285.189 41.4469 281.877 41.6016 276.782 41.6016C271.737 41.6016 268.498 40.9342 267.065 39.5996C265.503 38.151 264.722 34.8145 264.722 29.5898C264.722 28.5482 264.746 27.4089 264.795 26.1719C264.844 24.9349 264.909 23.6003 264.99 22.168C264.811 21.7936 264.722 21.3949 264.722 20.9717C264.722 20.4183 264.876 19.9219 265.186 19.4824C265.511 14.7786 265.674 11.3037 265.674 9.05762C265.674 8.4554 265.592 7.5765 265.43 6.4209C265.267 5.24902 265.186 4.36198 265.186 3.75977C265.186 1.82292 265.999 0.854492 267.627 0.854492C268.311 0.854492 268.896 1.09049 269.385 1.5625C271.338 1.04167 273.177 0.651042 274.902 0.390625C276.644 0.130208 278.28 0 279.81 0C283.765 0 286.922 0.472005 289.282 1.41602C290.373 1.85547 290.918 2.63672 290.918 3.75977C290.918 4.41081 290.706 4.98861 290.283 5.49316C289.811 6.04655 289.225 6.32324 288.525 6.32324Z" fill="#95F204"/>
<path d="M323.071 39.917C321.574 39.917 320.272 37.9964 319.165 34.1553C318.742 32.6904 318.213 30.127 317.578 26.4648C315.918 26.6927 313.745 27.0996 311.06 27.6855L304.565 29.0283C303.752 31.1605 302.36 34.2773 300.391 38.3789C299.87 39.2904 299.162 39.7461 298.267 39.7461C297.616 39.7461 297.03 39.5101 296.509 39.0381C296.004 38.5661 295.752 37.9801 295.752 37.2803C295.752 36.499 296.981 33.5286 299.438 28.3691C299.162 27.946 299.023 27.4577 299.023 26.9043C299.023 25.5859 299.821 24.7396 301.416 24.3652C303.271 20.8822 305.615 16.8783 308.447 12.3535C312.305 6.1849 314.705 3.10059 315.649 3.10059C316.935 3.10059 317.814 3.99577 318.286 5.78613L319.824 13.9893L323.462 30.957L324.854 34.8145C325.326 36.1328 325.562 37.0117 325.562 37.4512C325.562 38.151 325.309 38.737 324.805 39.209C324.3 39.681 323.722 39.917 323.071 39.917ZM314.453 12.0117L307.471 23.2666C309.44 22.762 312.427 22.1517 316.431 21.4355L314.453 12.0117Z" fill="#95F204"/>
<path d="M355.396 39.0137C352.873 40.7389 349.251 41.6016 344.531 41.6016C343.343 41.6016 341.984 41.4144 340.454 41.04C338.615 40.6006 337.231 40.0309 336.304 39.3311H336.06C335.36 39.3311 334.774 39.0869 334.302 38.5986C333.83 38.1104 333.594 37.5163 333.594 36.8164C333.594 35.1074 333.667 32.5521 333.813 29.1504C333.976 25.7324 334.058 23.1689 334.058 21.46C334.058 19.5557 334.017 16.7155 333.936 12.9395C333.87 9.14714 333.838 6.29883 333.838 4.39453C333.838 3.72721 334.18 3.02734 334.863 2.29492C335.547 1.5625 336.23 1.19629 336.914 1.19629C337.305 1.19629 338.607 1.74154 340.82 2.83203C343.327 4.05273 344.775 4.72819 345.166 4.8584C349.788 6.43717 353.727 8.8623 356.982 12.1338C360.807 15.9912 362.72 20.2311 362.72 24.8535C362.72 27.6367 362.061 30.306 360.742 32.8613C359.44 35.4167 357.658 37.4674 355.396 39.0137ZM350.269 13.1836C348.608 12.0931 344.775 10.2214 338.77 7.56836L338.892 14.5996L338.965 21.6064L338.574 34.9365C338.688 34.9854 338.859 35.0911 339.087 35.2539C340.519 36.2142 342.326 36.6943 344.507 36.6943C348.218 36.6943 350.92 36.1247 352.612 34.9854C354.191 33.9111 355.444 32.4707 356.372 30.6641C357.316 28.8411 357.788 26.945 357.788 24.9756C357.788 20.3857 355.282 16.4551 350.269 13.1836Z" fill="#95F204"/>
</g>
<defs>
<filter id="filter0_d_38_4" x="0" y="0" width="372.72" height="51.6016" filterUnits="userSpaceOnUse" color-interpolation-filters="sRGB">
<feFlood flood-opacity="0" result="BackgroundImageFix"/>
<feColorMatrix in="SourceAlpha" type="matrix" values="0 0 0 0 0 0 0 0 0 0 0 0 0 0 0 0 0 0 127 0" result="hardAlpha"/>
<feOffset dx="5" dy="5"/>
<feGaussianBlur stdDeviation="2.5"/>
<feComposite in2="hardAlpha" operator="out"/>
<feColorMatrix type="matrix" values="0 0 0 0 0.439216 0 0 0 0 0.713726 0 0 0 0 0.0117647 0 0 0 0.25 0"/>
<feBlend mode="normal" in2="BackgroundImageFix" result="effect1_dropShadow_38_4"/>
<feBlend mode="normal" in="SourceGraphic" in2="effect1_dropShadow_38_4" result="shape"/>
</filter>
</defs>
</svg>
