<svg width="300" height="300" viewBox="0 0 300 300" fill="none" xmlns="http://www.w3.org/2000/svg">
<circle cx="150" cy="150" r="150" fill="#FFD600"/>
<circle cx="150" cy="150" r="137.143" fill="#FFFAFA"/>
<path d="M182.662 33.411C162.552 24.9692 140.806 24.1165 119.318 31.5723C112.253 34.0237 107.832 39.6637 109.857 46.8626C117.385 73.6272 148.714 138.345 148.714 138.345C148.714 138.345 180.767 70.3743 189.024 45.832C190.909 40.2271 188.115 35.6999 182.662 33.411Z" fill="#FFD600"/>
<path d="M90.7131 45.0764C69.9716 54.0448 52.0635 71.9535 41.6329 93.3912C38.361 100.116 39.3624 107.171 46.1566 110.295C70.6436 121.556 137.216 138.339 137.216 138.339C137.216 138.339 114.631 71.7636 103.877 49.3006C101.324 43.9667 96.141 42.7294 90.7131 45.0764Z" fill="#FFD600"/>
<path d="M33.9139 121.316C25.6759 141.395 25.668 163.014 33.3572 184.465C35.8806 191.504 41.5654 195.759 48.5723 193.146C74.1868 183.595 134.571 147.429 134.571 147.429C134.571 147.429 70.2587 121.125 46.3782 114.483C40.6808 112.898 36.1586 115.845 33.9139 121.316Z" fill="#FFD600"/>
<path d="M95.1054 262.304C73.6677 251.873 55.7591 233.965 46.7906 213.223C44.4436 207.795 45.5258 202.47 50.5419 199.338C65.6466 189.906 102.262 171.672 123.858 161.108C133.809 156.24 140.571 153 140.571 153C140.571 153 123.029 230.567 111.647 257.555C108.742 264.445 101.83 265.575 95.1054 262.304Z" fill="#FFD600"/>
<path d="M126.454 271.501C145.647 279.206 163.879 277.388 184.299 269.269C191.248 266.506 195.583 260.912 193.308 253.788C184.706 226.849 150 161.143 150 161.143C150 161.143 125.043 233.393 119.265 258.981C117.963 264.75 120.966 269.298 126.454 271.501Z" fill="#FFD600"/>
<path d="M212.866 255.958C232.564 248.333 246.899 236.199 256.37 216.592C259.622 209.858 258.797 202.72 252.365 198.905C228.295 184.626 160.42 159 160.42 159C160.42 159 187.372 228.809 199.395 251.69C202.146 256.925 207.351 258.093 212.866 255.958Z" fill="#FFD600"/>
<path d="M263.945 111C273.365 113.961 276.857 157.481 267.459 184.673C265.527 190.262 260.956 192.977 255.402 190.946C231.14 182.073 164.1 148.377 161.589 147.114C161.49 147.135 161.464 147.124 161.517 147.077C161.517 147.077 161.541 147.089 161.589 147.114C164.974 146.389 253.805 107.812 263.945 111Z" fill="#FFD600"/>
<path d="M259.057 90.1914C250.365 70.6055 233.769 57.1072 212.807 47.8748C205.963 44.8606 198.842 45.6309 195.127 52.1211C181.685 75.606 158.771 140.194 158.771 140.194C158.771 140.194 231.266 114.819 254.848 103.362C260.167 100.778 261.456 95.5966 259.057 90.1914Z" fill="#FFD600"/>
</svg>
