<svg width="200" height="200" viewBox="0 0 200 200" fill="none" xmlns="http://www.w3.org/2000/svg">
<rect width="200" height="200" rx="22.5" fill="#C280FF"/>
<circle cx="100.5" cy="100.5" r="72.5" fill="#FFD600"/>
<path d="M125.144 100.288C125.064 114.095 113.806 125.223 99.9996 125.144C86.1927 125.064 75.0647 113.806 75.1444 99.9996C75.2242 86.1927 86.4815 75.0647 100.288 75.1444C114.095 75.2242 125.223 86.4815 125.144 100.288Z" fill="#D9D9D9"/>
<circle cx="100.5" cy="100.5" r="12.5" fill="#C280FF"/>
<circle cx="175.5" cy="25.5" r="17.5" fill="white"/>
<circle cx="175.5" cy="25.5" r="7.5" fill="#C280FF"/>
<path d="M187.716 101.629C187.418 103.604 187.293 105.049 187.147 105.705C186.804 107.249 185.904 109.437 185.368 110.413C184.196 112.545 184.185 113.552 181.716 118.834C181.716 118.834 181.55 116.338 179.451 111.529C178.792 110.018 178.748 109.591 179.982 106.95C180.805 105.189 180.796 104.241 181.777 102.244L187.716 101.629Z" fill="white"/>
<path d="M187.73 101.628L181.762 102.246L174.551 32.6181L180.519 32L187.73 101.628Z" fill="white"/>
</svg>
