<svg width="64" height="58" viewBox="0 0 64 58" fill="none" xmlns="http://www.w3.org/2000/svg">
<path d="M43.2758 6.78689C43.5099 7.77082 43.7304 8.73562 43.9371 9.68152C51.4563 44.1003 40.6536 53.5043 1.78315 49.6963C-0.875818 25.1094 3.33914 13.8539 15.6571 9.30866C21.1578 7.27896 28.2743 6.58735 37.116 6.64423C37.5258 6.64687 37.9393 6.65111 38.3564 6.6569C39.9423 6.67892 41.5819 6.72332 43.2758 6.78689Z" fill="#FFD600"/>
<path d="M39.2072 3.9198C34.7803 15.3819 28.0738 18.1903 8.66693 16.8434H5.35715C12.8205 4.15458 20.5728 0.735483 40.5612 1.01562L39.2072 3.9198Z" fill="#2DA719"/>
<path d="M40.5612 1.01562L39.2072 3.9198C34.7803 15.3819 28.0738 18.1903 8.66693 16.8434H5.35715M40.5612 1.01562C20.5728 0.735483 12.8205 4.15458 5.35715 16.8434M40.5612 1.01562V1.01562C39.4782 1.49077 38.5631 2.2669 37.7955 3.16667C32.9068 8.89767 24.9279 11.7371 9.18687 15.3654C7.84809 15.674 6.55432 16.1694 5.35715 16.8434V16.8434" stroke="black"/>
<path d="M1.57703 49.2975C25.2765 44.2585 34.8262 35.0436 43.3759 6.64102L44.3101 10.126C50.9422 45.5022 40.5909 53.418 1.60157 49.6226C1.41009 49.6226 1.38973 49.3373 1.57703 49.2975Z" fill="#F1B620"/>
<g filter="url(#filter0_d_21_30)">
<path d="M39.5 4L42.8333 4.90909L58 10.5L59.5 16.7273L48.5 12.1818H42.8333L45.5 28.5L39 24.5L39.5 12.1818V4Z" fill="#C280FF"/>
</g>
<g filter="url(#filter1_d_21_30)">
<ellipse cx="35.6618" cy="37.8205" rx="11.6618" ry="11.7216" fill="#C280FF" style="mix-blend-mode:darken" shape-rendering="crispEdges"/>
</g>
<defs>
<filter id="filter0_d_21_30" x="35" y="4" width="28.5" height="32.5" filterUnits="userSpaceOnUse" color-interpolation-filters="sRGB">
<feFlood flood-opacity="0" result="BackgroundImageFix"/>
<feColorMatrix in="SourceAlpha" type="matrix" values="0 0 0 0 0 0 0 0 0 0 0 0 0 0 0 0 0 0 127 0" result="hardAlpha"/>
<feOffset dy="4"/>
<feGaussianBlur stdDeviation="2"/>
<feComposite in2="hardAlpha" operator="out"/>
<feColorMatrix type="matrix" values="0 0 0 0 0 0 0 0 0 0 0 0 0 0 0 0 0 0 0.25 0"/>
<feBlend mode="normal" in2="BackgroundImageFix" result="effect1_dropShadow_21_30"/>
<feBlend mode="normal" in="SourceGraphic" in2="effect1_dropShadow_21_30" result="shape"/>
</filter>
<filter id="filter1_d_21_30" x="20" y="26.0989" width="31.3236" height="31.4432" filterUnits="userSpaceOnUse" color-interpolation-filters="sRGB">
<feFlood flood-opacity="0" result="BackgroundImageFix"/>
<feColorMatrix in="SourceAlpha" type="matrix" values="0 0 0 0 0 0 0 0 0 0 0 0 0 0 0 0 0 0 127 0" result="hardAlpha"/>
<feOffset dy="4"/>
<feGaussianBlur stdDeviation="2"/>
<feComposite in2="hardAlpha" operator="out"/>
<feColorMatrix type="matrix" values="0 0 0 0 0 0 0 0 0 0 0 0 0 0 0 0 0 0 0.25 0"/>
<feBlend mode="normal" in2="BackgroundImageFix" result="effect1_dropShadow_21_30"/>
<feBlend mode="normal" in="SourceGraphic" in2="effect1_dropShadow_21_30" result="shape"/>
</filter>
</defs>
</svg>
