<svg width="25" height="30" viewBox="0 0 25 30" fill="none" xmlns="http://www.w3.org/2000/svg">
<path d="M2.94351 7.5L1.92262 6.53611C-0.567153 4.18535 1.0965 0 4.52069 0C5.22073 0 5.90704 0.194169 6.50332 0.560915L22.1409 10.1789C23.4126 10.9611 24.3238 12.2141 24.676 13.665C24.8889 14.5423 24.8889 15.4577 24.676 16.335C24.3238 17.7859 23.4126 19.0389 22.1409 19.8211L6.50332 29.4391C5.90704 29.8058 5.22073 30 4.52069 30C1.0965 30 -0.567153 25.8147 1.92262 23.4639L2.94351 22.5L10.887 15L7.18612 11.5057L2.94351 7.5Z" fill="#C280FF"/>
</svg>
